<svg width="44" height="43" viewBox="0 0 44 43" fill="none" xmlns="http://www.w3.org/2000/svg">
<path d="M21.0489 1.42705C21.3483 0.505739 22.6517 0.50574 22.9511 1.42705L27.3883 15.0836C27.5222 15.4956 27.9062 15.7746 28.3394 15.7746H42.6987C43.6675 15.7746 44.0702 17.0142 43.2865 17.5836L31.6696 26.0238C31.3191 26.2784 31.1724 26.7298 31.3063 27.1418L35.7436 40.7984C36.0429 41.7197 34.9884 42.4858 34.2047 41.9164L22.5878 33.4762C22.2373 33.2216 21.7627 33.2216 21.4122 33.4762L9.79527 41.9164C9.01155 42.4858 7.95707 41.7197 8.25642 40.7984L12.6937 27.1418C12.8276 26.7298 12.6809 26.2784 12.3304 26.0238L0.713483 17.5836C-0.0702302 17.0142 0.332547 15.7746 1.30127 15.7746H15.6606C16.0938 15.7746 16.4778 15.4956 16.6117 15.0836L21.0489 1.42705Z" fill="#FCF200"/>
</svg>
